<svg width="14" height="14" viewBox="0 0 14 14" fill="none" xmlns="http://www.w3.org/2000/svg">
<path d="M4.08333 12.8333V6.41666M1.16666 7.58332V11.6667C1.16666 12.311 1.689 12.8333 2.33333 12.8333H10.1653C11.0291 12.8333 11.7636 12.2031 11.895 11.3494L12.5232 7.26609C12.6862 6.20601 11.8661 5.24999 10.7935 5.24999H8.75C8.42783 5.24999 8.16666 4.98882 8.16666 4.66666V2.60506C8.16666 1.81065 7.52267 1.16666 6.72826 1.16666C6.53878 1.16666 6.36707 1.27825 6.29011 1.45139L4.23729 6.07024C4.14367 6.2809 3.93476 6.41666 3.70424 6.41666H2.33333C1.689 6.41666 1.16666 6.93899 1.16666 7.58332Z" stroke="#3766FC" stroke-width="2" stroke-linecap="round" stroke-linejoin="round"/>
</svg>
