<svg width="15" height="15" viewBox="0 0 15 15" fill="none" xmlns="http://www.w3.org/2000/svg">
<path d="M1.76471 4.875C1.76471 3.8249 1.76471 3.29985 1.95705 2.89877C2.12624 2.54596 2.3962 2.25913 2.72825 2.07936C3.10574 1.875 3.59991 1.875 4.58824 1.875H9.52941C10.5177 1.875 11.0119 1.875 11.3894 2.07936C11.7214 2.25913 11.9914 2.54596 12.1606 2.89877C12.3529 3.29985 12.3529 3.8249 12.3529 4.875V8.25C12.3529 9.3001 12.3529 9.82515 12.1606 10.2262C11.9914 10.579 11.7214 10.8659 11.3894 11.0456C11.0119 11.25 10.5177 11.25 9.52941 11.25H8.04926C7.68217 11.25 7.49863 11.25 7.32307 11.2883C7.16731 11.3222 7.01659 11.3784 6.87499 11.4553C6.71539 11.5419 6.57207 11.6637 6.28542 11.9074L4.88221 13.1001C4.63745 13.3082 4.51507 13.4122 4.41208 13.4123C4.32251 13.4124 4.23778 13.3691 4.1819 13.2948C4.11765 13.2092 4.11765 13.0427 4.11765 12.7097V11.25C3.5706 11.25 3.29708 11.25 3.07267 11.1861C2.46369 11.0127 1.98801 10.5073 1.82484 9.86029C1.76471 9.62185 1.76471 9.33123 1.76471 8.75V4.875Z" stroke="#3766FC" stroke-width="2" stroke-linecap="round" stroke-linejoin="round"/>
</svg>
